Coordinates
version=1
nRows=4
nColumns=63
inDegrees=yes

Units are S.I. units (second, meters, Newtons, ...)
If the header above contains a line with 'inDegrees', this indicates whether rotational values are in degrees (yes) or radians (no).

endheader
time	pelvis_tilt	pelvis_list	pelvis_rotation	pelvis_tx	pelvis_ty	pelvis_tz	hip_flexion_r	hip_adduction_r	hip_rotation_r	knee_angle_r	knee_angle_r_beta	ankle_angle_r	subtalar_angle_r	mtp_angle_r	hip_flexion_l	hip_adduction_l	hip_rotation_l	knee_angle_l	knee_angle_l_beta	ankle_angle_l	subtalar_angle_l	mtp_angle_l	L5_S1_Flex_Ext	L5_S1_Lat_Bending	L5_S1_axial_rotation	L4_L5_Flex_Ext	L4_L5_Lat_Bending	L4_L5_axial_rotation	L3_L4_Flex_Ext	L3_L4_Lat_Bending	L3_L4_axial_rotation	L2_L3_Flex_Ext	L2_L3_Lat_Bending	L2_L3_axial_rotation	L1_L2_Flex_Ext	L1_L2_Lat_Bending	L1_L2_axial_rotation	L1_T12_Flex_Ext	L1_T12_Lat_Bending	L1_T12_axial_rotation	Abs_r3	Abs_r2	Abs_r1	Abs_t1	Abs_t2	neck_flexion	neck_bending	neck_rotation	arm_flex_r	arm_add_r	arm_rot_r	elbow_flex_r	pro_sup_r	wrist_flex_r	wrist_dev_r	arm_flex_l	arm_add_l	arm_rot_l	elbow_flex_l	pro_sup_l	wrist_flex_l	wrist_dev_l
      3.49122807	      2.67430744	    -18.01907999	    103.59259952	      0.27429912	      0.94915221	      0.51309127	     15.85119058	      1.37486325	      5.17246173	     14.53456046	      0.25367594	     35.01640788	    -15.81096697	      0.00000000	     12.62828079	     -0.63591080	     15.51218190	      3.27349087	      0.05713319	     30.29550791	     -7.48222834	      0.00000000	      0.02940565	     -2.25705500	      1.65673224	      0.05460923	     -3.00188315	      1.76027800	      0.04831054	     -5.48780353	      1.76027800	      0.03360771	     -5.48780353	      1.44964071	      0.02730608	     -4.60258656	      1.34609494	      0.01680239	     -3.49617820	      1.24254918	      0.21004160	    -25.53225759	      9.21424770	      0.00000000	      0.00000000	      7.93433918	      0.09303440	    -25.27516391	    -16.71320997	      6.39864388	    192.24151115	      0.11804890	      3.39625094	    -67.82171428	    -23.70409410	    -27.11463628	    -31.05801560	     -8.42177609	     47.16642955	     87.81393951	    -15.41758963	    -10.46452410
      3.50877193	      2.58394153	    -17.92142584	    103.96398565	      0.27340464	      0.94925425	      0.51353453	     15.59746716	      1.16286119	      4.53967227	     14.38193663	      0.25101215	     34.57840447	    -15.79726405	      0.00000000	     12.67844308	     -0.46414391	     15.15723247	      3.69494967	      0.06448904	     30.57755966	     -6.26985867	      0.00000000	      0.09093832	     -2.19143647	      1.55618706	      0.16888156	     -2.91461051	      1.65344875	      0.14940257	     -5.32825864	      1.65344875	      0.10393341	     -5.32825864	      1.36166368	      0.08444533	     -4.46877726	      1.26440198	      0.05196216	     -3.39453510	      1.16714029	      0.64956336	    -24.78996767	      8.65504556	      0.00000000	      0.00000000	      7.52958292	     -1.60098367	    -23.10960585	    -17.20773067	      6.95559961	    189.68242384	      0.11878995	      2.31734455	    -67.72205473	    -23.50946118	    -23.75529199	    -31.31837391	     -7.53737769	     49.53117271	     88.21332083	    -17.32520150	     -6.73999101
      3.52631579	      2.49618694	    -17.56617609	    104.19326957	      0.27241332	      0.94940145	      0.51445124	     15.12928255	      1.04489572	      3.96341593	     14.27489569	      0.24914393	     34.20107999	    -15.80866498	      0.00000000	     12.44098268	     -0.37167810	     15.09083907	      4.00424327	      0.06988723	     30.84422580	     -5.57623267	      0.00000000	      0.14635614	     -2.10304015	      1.43453206	      0.27179799	     -2.79704340	      1.52419031	      0.24044850	     -5.11333183	      1.52419031	      0.16727043	     -5.11333183	      1.25521555	      0.13590631	     -4.28851948	      1.16555730	      0.08362790	     -3.25760920	      1.07589905	      1.04540727	    -23.79001081	      7.97843696	      0.00000000	      0.00000000	      7.29394744	     -3.43969019	    -20.12949243	    -17.74272961	      7.01450462	    187.21615183	      0.12117378	      1.68948072	    -67.29643447	    -23.19788587	    -20.71999308	    -31.12524762	     -6.56268749	     50.93541112	     88.38643105	    -17.79772740	     -2.89253375
      3.54385965	      2.23752058	    -17.09877937	    104.29943963	      0.27147855	      0.94986985	      0.51561497	     14.55662994	      0.80630861	      3.34928364	     14.21664759	      0.24812731	     34.00123216	    -15.70889358	      0.00000000	     12.05112997	     -0.15696338	     14.89123014	      4.26254371	      0.07439542	     31.07437751	     -4.79830482	      0.00000000	      0.19050460	     -2.03821394	      1.29429356	      0.35378608	     -2.71082453	      1.37518691	      0.31298000	     -4.95571336	      1.37518691	      0.21772770	     -4.95571336	      1.13250686	      0.17690257	     -4.15632586	      1.05161352	      0.10885433	     -3.15719339	      0.97072017	      1.36075527	    -23.05668369	      7.19847249	      0.00000000	      0.00000000	      7.37509109	     -5.18703660	    -17.46773667	    -18.15540841	      6.68003032	    184.74745171	      0.12398308	      1.43141919	    -67.20475338	    -23.02337939	    -18.39700560	    -30.81230672	     -5.58306635	     51.83348605	     88.42589410	    -17.15343271	      1.26241882
